<?xml version="1.0" encoding="UTF-8"?>
<svg xmlns="http://www.w3.org/2000/svg" viewBox="0 0 192 192"><path d="M171.76 104h-27.768c-.094-18.327-1.483-36-21.992-36s-21.898 17.673-21.992 36h-27.76l-4.594 72.003 108.556-.083-4.45-71.92zM122 76c12.03 0 13.814 7.763 13.985 28h-27.97c.17-20.237 1.955-28 13.985-28zm-45.819 91.997L79.753 112h84.487l3.46 55.927-91.519.07zM91.811 48H48.189c1.1-11.835 7.23-24 21.812-24s20.713 12.165 21.812 24zm23.734 0H99.856C98.45 28.695 86.808 16 70 16S41.55 28.695 40.144 48H23.626l-7.574 82.672a12.308 12.308 0 0 0 3.148 9.403A12.033 12.033 0 0 0 28.063 144h33.614l.51-8H28.064a3.96 3.96 0 0 1-2.954-1.318 4.231 4.231 0 0 1-1.09-3.28L30.927 56h77.4l.67 6.491c2.367-1.045 4.98-1.755 7.821-2.141L115.545 48z" style="fill: #ffffff;"/></svg>
