<svg enable-background="new 0 0 192 192" viewBox="0 0 192 192" xmlns="http://www.w3.org/2000/svg"><path d="m90.34856 105.93153c0-8.12079 2.30431-12.07133 10.53495-17.88779 6.36471-4.38943 8.44983-7.68139 8.44983-13.05846 0-6.8041-5.04803-11.41323-12.62007-11.41323-8.34048 0-13.38801 4.38993-15.03423 13.27866l-8.44983-1.09748c1.09698-6.47456 2.96291-10.31525 7.0233-13.93675 4.27958-3.84121 10.09605-5.81648 16.7898-5.81648 12.94911 0 21.72849 7.57204 21.72849 18.76558 0 5.15788-1.64622 9.43746-4.82883 12.94911-1.97527 2.08512-3.51115 3.29246-8.44983 6.58441-5.81597 3.84069-7.13265 6.25536-7.13265 12.83926v4.71898h-8.01093zm10.86399 23.04517c0 3.8407-3.1826 7.0233-7.02329 7.0233-3.95055 0-7.0233-3.07275-7.0233-7.0233 0-3.95054 3.07275-7.0233 7.0233-7.0233 3.84069 0 7.02329 3.18261 7.02329 7.0233zm-5.21255 47.0233c-44.1123 0-80-35.8877-80-80s35.8877-80 80-80 80 35.8877 80 80-35.8877 80-80 80zm0-152c-39.70117 0-72 32.29883-72 72s32.29883 72 72 72 72-32.29883 72-72-32.29883-72-72-72z"/></svg>