<?xml version="1.0" encoding="utf-8"?>
<!-- Generator: Adobe Illustrator 24.2.3, SVG Export Plug-In . SVG Version: 6.00 Build 0)  -->
<svg version="1.1" id="Layer_1" xmlns="http://www.w3.org/2000/svg" xmlns:xlink="http://www.w3.org/1999/xlink" x="0px" y="0px"
	 viewBox="0 0 192 192" style="enable-background:new 0 0 192 192;" xml:space="preserve">
<path d="M109.2,101.5C122.5,96.2,132,83.2,132,68c0-19.8-16.2-36-36-36S60,48.2,60,68c0,15.2,9.5,28.2,22.8,33.5
	c-17.2,3.9-31.7,15.2-39.8,30.4c1.7,2.5,3.5,4.8,5.5,7C56.6,120.7,74.9,108,96,108c21.1,0,39.4,12.7,47.5,30.9c2-2.2,3.8-4.5,5.5-7
	C140.9,116.7,126.4,105.4,109.2,101.5z M68,68c0-15.4,12.6-28,28-28s28,12.6,28,28s-12.6,28-28,28S68,83.4,68,68z"/>
<path d="M96,24c39.7,0,72,32.3,72,72s-32.3,72-72,72s-72-32.3-72-72S56.3,24,96,24 M96,16c-44.2,0-80,35.8-80,80s35.8,80,80,80
	s80-35.8,80-80S140.2,16,96,16L96,16z"/>
</svg>
